<?xml version="1.0" encoding="UTF-8"?>
<svg width="407px" height="87px" viewBox="0 0 407 87" version="1.1" xmlns="http://www.w3.org/2000/svg" xmlns:xlink="http://www.w3.org/1999/xlink">
    <!-- Generator: Sketch 49 (51002) - http://www.bohemiancoding.com/sketch -->
    <title>Лого</title>
    <desc>Created with Sketch.</desc>
    <defs></defs>
    <g id="Desktop" stroke="none" stroke-width="1" fill="none" fill-rule="evenodd">
        <g id="Desktop-HD" transform="translate(-101.000000, -7.000000)">
            <g id="Шапка">
                <g id="Лого" transform="translate(100.000000, 7.000000)">
                    <g id="logo" transform="translate(1.000000, 0.000000)" fill-rule="nonzero">
                        <g id="text3693" transform="translate(189.000000, 18.000000)" fill="#B8C0CC" fill-opacity="0.85882">
                            <path d="M1.70689655,23.0344828 L4.12213793,23.0344828 L4.12213793,20.4092414 L14.3921379,20.4092414 L14.3921379,23.0344828 L16.8093793,23.0344828 L16.8093793,17.9941379 L14.8141724,17.9941379 L14.8141724,5.70793103 L5.69934483,5.70793103 L5.55234483,8.64824138 C5.30031034,14.1296207 3.89317241,17.2378966 3.28413793,17.9941034 L1.70896552,17.9941034 L1.70689655,23.0344828 Z M7.96551724,10.6851724 L8.19655172,8.12289655 L12.25,8.12289655 L12.25,17.993931 L6.11724138,17.993931 C6.64227586,17.3428621 7.69241379,14.4866897 7.96541379,10.6853103 L7.96551724,10.6851724 Z" id="path4752"></path>
                            <polygon id="path4754" points="20.4137931 20.4137931 29.1296552 20.4137931 29.1296552 17.9985517 22.9968966 17.9985517 22.9968966 14.1971724 28.2893103 14.1971724 28.2893103 11.781931 22.9968966 11.781931 22.9968966 8.12744828 28.9196552 8.12744828 28.9196552 5.7122069 20.4137931 5.7122069"></polygon>
                            <polygon id="path4756" points="31.6965517 8.10344828 36.4641379 8.10344828 36.4641379 20.3896552 39.0473793 20.3896552 39.0473793 8.10344828 43.8149655 8.10344828 43.8149655 5.6882069 31.6966897 5.6882069"></polygon>
                            <polygon id="path4758" points="47.1275862 20.4137931 55.8434483 20.4137931 55.8434483 17.9985517 49.7106897 17.9985517 49.7106897 14.1971724 55.0031034 14.1971724 55.0031034 11.781931 49.7106897 11.781931 49.7106897 8.12744828 55.6334483 8.12744828 55.6334483 5.7122069 47.1275862 5.7122069"></polygon>
                            <path d="M62.5172414,20.4137931 L70.2248276,9.97586207 L70.2248276,20.4137931 L72.8081034,20.4137931 L72.8081034,5.71241379 L70.5398621,5.71241379 L62.8322759,16.1713793 L62.8322759,5.71241379 L60.2490345,5.71241379 L60.2490345,20.4137931 L62.5172414,20.4137931 Z M62.5803448,2.14206897 C62.7272414,3.92724138 64.2604828,5.14537931 66.7806897,5.14537931 C69.0908966,5.14537931 70.8131034,3.94824138 70.8762069,2.14206897 L68.4609655,2.14206897 C68.3768276,3.04517241 67.7258966,3.3602069 66.7808276,3.3602069 C65.7307241,3.3602069 65.1636552,2.96117241 64.9956207,2.14206897 L62.5803448,2.14206897 Z" id="path4760"></path>
                            <path d="M86.6206897,20.4137931 L89.1829655,20.4137931 L89.1829655,5.71241379 L79.9208966,5.71241379 L79.7108966,8.65272414 C79.0598276,17.5154828 77.5686552,17.9985862 76.4345517,17.8516897 L76.3714483,20.4139655 C79.2697241,20.834 81.1811034,19.4478621 82.0421379,10.9001724 L82.3362759,8.12789655 L86.6207586,8.12789655 L86.6206897,20.4137931 Z" id="path4762"></path>
                            <polygon id="path4764" points="96.5517241 20.4137931 104.25931 9.97586207 104.25931 20.4137931 106.842552 20.4137931 106.842552 5.71241379 104.574345 5.71241379 96.8667586 16.1713793 96.8667586 5.71241379 94.2834828 5.71241379 94.2834828 20.4137931"></polygon>
                            <polygon id="path4766" points="121.310345 20.4137931 123.872586 20.4137931 123.872586 5.71241379 121.310345 5.71241379 121.310345 11.7189655 114.589655 11.7189655 114.589655 5.71241379 112.006379 5.71241379 112.006379 20.4137931 114.589655 20.4137931 114.589655 14.1341379 121.310345 14.1341379"></polygon>
                            <polygon id="path4768" points="129 20.4137931 131.583276 20.4137931 131.583276 8.12758621 137.29569 8.12758621 137.29569 5.71234483 128.999828 5.71234483"></polygon>
                            <polygon id="path4770" points="146.241379 20.4137931 157.435517 20.4137931 157.435517 23.0390345 159.850759 23.0390345 159.850759 17.9986897 157.855552 17.9986897 157.855552 5.71248276 155.272276 5.71248276 155.272276 17.9986897 148.82469 17.9986897 148.82469 5.71248276 146.241448 5.71248276"></polygon>
                            <polygon id="path4772" points="163.448276 20.4137931 172.164138 20.4137931 172.164138 17.9985517 166.031724 17.9985517 166.031724 14.1971724 171.324138 14.1971724 171.324138 11.781931 166.031724 11.781931 166.031724 8.12744828 171.954483 8.12744828 171.954483 5.7122069 163.448621 5.7122069"></polygon>
                            <polygon id="path4774" points="185.862069 20.4137931 188.42431 20.4137931 188.42431 5.71241379 185.862069 5.71241379 185.862069 11.7189655 179.141379 11.7189655 179.141379 5.71241379 176.558103 5.71241379 176.558103 20.4137931 179.141379 20.4137931 179.141379 14.1341379 185.862069 14.1341379"></polygon>
                            <polygon id="path4776" points="191.724138 8.10344828 196.491724 8.10344828 196.491724 20.3896552 199.074966 20.3896552 199.074966 8.10344828 203.842552 8.10344828 203.842552 5.6882069 191.724276 5.6882069"></polygon>
                            <path d="M209.758621,20.4137931 L209.758621,15.1003448 C210.38869,15.1634483 211.228793,15.1634483 211.669828,15.1634483 C215.177069,15.1634483 217.046379,12.8952414 217.046379,10.3958621 C217.046379,7.98062069 215.681241,5.67034483 211.354655,5.67034483 C210.325552,5.67034483 207.99431,5.71241379 207.175345,5.71241379 L207.175345,20.4137931 L209.758621,20.4137931 Z M211.606828,8.08551724 C213.371,8.08551724 214.316069,8.84158621 214.316069,10.3747586 C214.316069,12.0128966 213.118966,12.748 211.585828,12.748 C210.997759,12.748 210.36769,12.705931 209.758621,12.6428276 L209.758621,8.12731034 C210.45169,8.10662069 211.081759,8.08524138 211.606828,8.08524138 L211.606828,8.08551724 Z" id="path4778"></path>
                            <polygon id="path4780" points="12.6275862 46.9655172 15.2108276 46.9655172 15.2108276 32.2641379 3.49151724 32.2641379 3.49151724 46.9655172 6.07475862 46.9655172 6.07475862 34.6793103 12.6275172 34.6793103"></polygon>
                            <path d="M22.9172414,46.9655172 L22.9172414,41.652069 C23.5473103,41.7151724 24.3873793,41.7151724 24.8284138,41.7151724 C28.3356552,41.7151724 30.2049655,39.446931 30.2049655,36.9475862 C30.2049655,34.5323448 28.8398276,32.222069 24.5132414,32.222069 C23.4841379,32.222069 21.1528966,32.2641379 20.333931,32.2641379 L20.333931,46.9655172 L22.9172414,46.9655172 Z M24.7654138,34.6372414 C26.5295862,34.6372414 27.4746897,35.3933448 27.4746897,36.9264828 C27.4746897,38.5646552 26.2775862,39.2997241 24.7444138,39.2997241 C24.1563448,39.2997241 23.5262759,39.2576552 22.9172414,39.1945517 L22.9172414,34.7117931 C23.6103103,34.6911034 24.2403793,34.6697241 24.7654138,34.6697241 L24.7654138,34.6372414 Z" id="path4782"></path>
                            <polygon id="path4784" points="34.2241379 46.9655172 42.94 46.9655172 42.94 44.5502759 36.8072414 44.5502759 36.8072414 40.7488966 42.0996552 40.7488966 42.0996552 38.3336552 36.8065517 38.3336552 36.8065517 34.6784828 42.7289655 34.6784828 42.7289655 32.2632414 34.2231034 32.2632414"></polygon>
                            <polygon id="path4786" points="47.3310345 46.9655172 49.9142759 46.9655172 49.9142759 36.4013793 54.5977241 42.87 54.9757586 42.87 59.6171379 36.3382759 59.6171379 46.9651724 62.1793793 46.9651724 62.1793793 32.2637931 59.7431379 32.2637931 54.9548621 39.1313793 49.9352069 32.2637931 47.3309655 32.2637931"></polygon>
                            <polygon id="path4788" points="69.5517241 46.9655172 77.2596552 36.5275862 77.2596552 46.9655172 79.8428966 46.9655172 79.8428966 32.2641379 77.5746552 32.2641379 69.867069 42.7231034 69.867069 32.2641379 67.2838276 32.2641379 67.2838276 46.9655172"></polygon>
                            <path d="M97.0689655,32.2413793 L94.4647241,32.2413793 L90.9574828,40.4531034 L86.1478276,32.2413793 L83.2285517,32.2413793 L89.7182069,42.9944828 L89.5082069,43.4985517 C89.214069,44.1286207 88.7521034,44.5276552 88.0590345,44.5276552 C87.639,44.5276552 87.3659655,44.4435172 86.966931,44.1706207 L86.0638621,46.3548276 C86.4628966,46.67 87.3239655,46.9428966 88.080069,46.9428966 C89.9072414,46.9428966 91.0623448,45.7667586 92.0704138,43.5195517 L97.0689655,32.2413793 Z" id="path4790"></path>
                            <polygon id="path4792" points="100.413793 46.9655172 102.997069 46.9655172 102.997069 36.4013793 107.680517 42.87 108.058552 42.87 112.699931 36.3382759 112.699931 46.9651724 115.262172 46.9651724 115.262172 32.2637931 112.825931 32.2637931 108.03731 39.1313793 103.018 32.2637931 100.413724 32.2637931"></polygon>
                            <polygon id="path4794" points="119.62069 42.3448276 124.913103 42.3448276 124.913103 40.0976207 119.62069 40.0976207"></polygon>
                            <polygon id="path4796" points="129.344828 46.9655172 131.928069 46.9655172 131.928069 39.3837931 137.934621 46.9655172 141.210966 46.9655172 134.784414 39.1106897 140.833034 32.2641379 137.724724 32.2641379 131.928172 39.2368966 131.928172 32.2641379 129.344931 32.2641379"></polygon>
                            <path d="M153.034483,46.9655172 L155.596759,46.9655172 L155.596759,32.2641379 L146.33469,32.2641379 L146.12469,35.2044138 C145.473655,44.0671724 143.982483,44.5502759 142.848379,44.4033793 L142.785276,46.9656552 C145.683552,47.3856897 147.594931,45.9995517 148.455966,37.4518621 L148.750103,34.6796207 L153.034586,34.6796207 L153.034483,46.9655172 Z" id="path4798"></path>
                            <path d="M158.827586,46.9655172 L161.431828,46.9655172 L162.964966,43.2062069 L169.244621,43.2062069 L170.777793,46.9655172 L173.529069,46.9655172 L167.312517,32.222069 L165.044276,32.222069 L158.827586,46.9655172 Z M166.115172,35.5613793 L168.257414,40.7910345 L163.951897,40.7910345 L166.115172,35.5613793 Z" id="path4800"></path>
                            <path d="M186.482759,43.5862069 C185.474655,44.3632759 184.235552,44.7623103 182.996552,44.7623103 C179.993276,44.7623103 177.914138,42.6621034 177.914138,39.5957586 C177.914138,36.4034483 179.972345,34.4292069 182.702414,34.4292069 C184.172586,34.4292069 185.138655,34.8282414 186.020759,35.4163103 L187.175862,33.5051034 C186.209759,32.6230345 184.613621,32.0139655 182.702414,32.0139655 C177.851034,32.0139655 175.183793,35.3743103 175.183793,39.5956897 C175.183793,44.1743103 178.271103,47.1774138 182.765517,47.1774138 C184.67669,47.1774138 186.545862,46.5053448 187.47,45.5182759 L186.482759,43.5862069 Z" id="path4802"></path>
                            <path d="M200.689655,43.5862069 C199.681552,44.3632759 198.442414,44.7623103 197.203448,44.7623103 C194.200138,44.7623103 192.121034,42.6621034 192.121034,39.5957586 C192.121034,36.4034483 194.179241,34.4292069 196.909655,34.4292069 C198.379793,34.4292069 199.345897,34.8282414 200.228,35.4163103 L201.383103,33.5051034 C200.417,32.6230345 198.820828,32.0139655 196.909655,32.0139655 C192.058276,32.0139655 189.391034,35.3743103 189.391034,39.5956897 C189.391034,44.1743103 192.478345,47.1774138 196.972759,47.1774138 C198.883966,47.1774138 200.753103,46.5053448 201.677241,45.5182759 L200.689655,43.5862069 Z" id="path4804"></path>
                            <path d="M203.241379,46.9655172 L205.845621,46.9655172 L207.378793,43.2062069 L213.658448,43.2062069 L215.191586,46.9655172 L217.942862,46.9655172 L211.72631,32.222069 L209.458103,32.222069 L203.241379,46.9655172 Z M210.528966,35.5613793 L212.671172,40.7910345 L208.365655,40.7910345 L210.528966,35.5613793 Z" id="path4806"></path>
                        </g>
                        <g id="g4716" transform="translate(0.285714, 0.000000)">
                            <g id="g4700" transform="translate(0.000000, 0.071429)">
                                <path d="M97.5946457,0.332493123 C94.4938447,0.332493123 91.9966737,2.84392451 91.9966737,5.96243292 L91.9966737,16.724127 C91.9966737,19.8426354 94.4938447,22.3526814 97.5946457,22.3526814 L115.648718,22.3526814 L115.617366,15.1849609 L99.5408632,15.1849609 C98.2397666,15.1849609 97.1917482,14.3088969 97.1917482,13.2204807 L97.1917482,9.46469381 C97.1917482,8.37630528 98.2397941,7.50021361 99.5408632,7.50021361 L115.583203,7.50021361 L115.551851,0.365465357 L110.051959,0.332493123 L97.5946457,0.332493123 Z" id="rect4543" fill="#4C639E"></path>
                                <path d="M71.1792927,0.332493123 C68.0784918,0.332493123 65.5826982,2.84392451 65.5826982,5.96243292 L65.5826982,16.724127 C65.5826982,19.8426354 68.0784367,22.3526814 71.1792927,22.3526814 L83.636771,22.3526814 C86.737572,22.3526814 89.234743,19.8426908 89.234743,16.724127 L89.234743,5.96243292 C89.234743,2.84392451 86.737572,0.332493123 83.636771,0.332493123 L71.1792927,0.332493123 Z M72.692693,7.03195247 L82.1248584,7.03195247 C83.3601922,7.03195247 84.354377,8.0318147 84.354377,9.27420296 L84.354377,13.4106945 C84.354377,14.6530827 83.3601922,15.6530004 82.1248584,15.6530004 L72.692693,15.6530004 C71.4573592,15.6530004 70.4631744,14.6530827 70.4631744,13.4106945 L70.4631744,9.27420296 C70.4631744,8.0318147 71.4573592,7.03195247 72.692693,7.03195247 Z" id="path4553" fill="#4C639E"></path>
                                <polygon id="rect4539-3" fill="#4C639E" points="118.726288 0.315251138 118.726288 22.3351331 123.787536 22.3351331 123.787536 14.3283032 137.317922 14.3283032 137.317922 22.3351331 142.377711 22.3351331 142.377711 0.315251138 137.317922 0.315251138 137.317922 8.32208109 123.787536 8.32208109 123.787536 0.315251138"></polygon>
                                <g id="g4640" transform="translate(-0.000000, -0.000003)" fill="#4C639E">
                                    <polygon id="rect3697" points="0 0.332493123 20.9319907 0.332493123 20.9319907 61.19813 0 61.19813"></polygon>
                                    <path d="M51.132675,0.315254134 C30.9413336,0.315254134 14.6862103,9.82492252 14.6862103,21.6364995 L14.6862103,39.8589654 C14.6862103,51.6705424 30.9413336,61.1802108 51.132675,61.1802108 L62.7897123,61.1802108 C62.761357,60.8336049 62.7455392,60.4858261 62.7455392,60.1349683 L62.7455392,40.9844081 L44.0594367,40.9844081 C39.848558,40.9844081 36.458162,37.4183558 36.458162,32.9893076 L36.458162,29.9882492 C36.458162,25.5589812 39.8483393,21.9931488 44.0594367,21.9931488 L62.7455392,21.9931488 L62.7455392,0.31562068 L51.132675,0.315254134 Z" id="rect4631"></path>
                                </g>
                                <path d="M66.9971374,32.3903717 C66.9971401,34.7401283 65.1031003,36.6448983 62.7667687,36.6448983 C60.4303544,36.6448983 58.5364001,34.7400452 58.5364001,32.3903717 C58.5363973,30.0406151 62.7667687,23.0958035 62.7667687,23.0958035 C62.7667687,23.0958035 66.9971374,30.0407536 66.9971374,32.3903717 Z" id="path4666" fill="#4C639E"></path>
                                <rect id="rect4669" fill="#4C639E" x="118.574299" y="40.9520696" width="23.6520447" height="20.1679245"></rect>
                                <polygon id="rect4671" fill-opacity="0.88" fill="#CC0000" points="93.1314759 40.9797774 93.1314759 53.6267074 104.809552 53.6267074 104.809552 61.1166692 110.059563 61.1166692 110.059563 40.9795003 104.651413 40.9795003 104.651413 48.7376731 98.5396255 48.7376731 98.5396255 40.9795003"></polygon>
                                <path d="M73.3447566,40.9797774 L73.3447566,45.9793656 L83.9814269,45.9793656 C84.568499,45.9793656 85.0398042,46.4534177 85.0398042,47.0438146 L85.0398042,47.5129347 C85.0398042,48.1033317 84.5684714,48.5789077 83.9814269,48.5789077 L78.4170664,48.5789077 C78.4170664,48.5789077 73.3450321,49.0657884 73.3450321,54.8843627 L73.3450321,61.1183316 L91.2744116,61.1183316 L91.2743014,55.9879628 L79.9372991,55.9879628 C79.350227,55.9879628 78.8773514,55.5139107 78.8773514,54.9235137 L78.8773514,54.4544214 C78.8773514,53.8640244 79.350227,53.3884207 79.9372991,53.3884207 L85.2534303,53.3884207 C90.933227,53.3260782 91.2743014,49.8808953 91.2743014,47.3680786 C91.2743014,47.3680786 91.3788553,40.9797774 85.1470856,40.9797774 L73.3447566,40.9797774 Z" id="rect4673" fill-opacity="0.88" fill="#CC0000"></path>
                            </g>
                            <rect id="rect4702" fill-opacity="0.85882" fill="#B8C0CC" x="165.328571" y="5.5" width="1.21988143" height="71"></rect>
                        </g>
                    </g>
                    <text id="СЕВЕР" font-family="Arial-Black, Arial Black" font-size="26" font-weight="700" letter-spacing="12" fill="#4C639E">
                        <tspan x="0" y="86">СЕВЕ</tspan>
                        <tspan x="126" y="86">Р</tspan>
                    </text>
                </g>
            </g>
        </g>
    </g>
</svg>